<mxfile host="Electron" modified="2024-07-30T19:34:57.877Z" agent="Mozilla/5.0 (Windows NT 10.0; Win64; x64) AppleWebKit/537.36 (KHTML, like Gecko) draw.io/22.1.16 Chrome/120.0.6099.109 Electron/28.1.0 Safari/537.36" etag="z6ft3D6QVMtny8B5Rsty" version="22.1.16" type="device">
  <diagram name="Page-1" id="6tg9GIHV7iliTP3JH1uk">
    <mxGraphModel dx="1418" dy="940" grid="1" gridSize="10" guides="1" tooltips="1" connect="1" arrows="1" fold="1" page="1" pageScale="1" pageWidth="700" pageHeight="320" math="0" shadow="0">
      <root>
        <mxCell id="0" />
        <mxCell id="1" parent="0" />
        <mxCell id="hHmgyYZAZo99E_Bc1XQI-2" value="" style="endArrow=none;html=1;rounded=1;curved=0;arcSize=5;" parent="1" edge="1">
          <mxGeometry width="50" height="50" relative="1" as="geometry">
            <mxPoint x="336.07000000000005" y="138.46596858638745" as="sourcePoint" />
            <mxPoint x="287.38" y="24.85340314136126" as="targetPoint" />
            <Array as="points">
              <mxPoint x="336.07000000000005" y="122.23560209424085" />
              <mxPoint x="352.3" y="122.23560209424085" />
              <mxPoint x="352.3" y="57.31413612565446" />
              <mxPoint x="271.15" y="57.31413612565446" />
              <mxPoint x="271.15" y="41.083769633507856" />
            </Array>
          </mxGeometry>
        </mxCell>
        <mxCell id="hHmgyYZAZo99E_Bc1XQI-14" value="" style="endArrow=blockThin;html=1;rounded=0;endFill=1;" parent="1" edge="1">
          <mxGeometry width="50" height="50" relative="1" as="geometry">
            <mxPoint x="263.035" y="7" as="sourcePoint" />
            <mxPoint x="263.035" y="31.3455497382199" as="targetPoint" />
          </mxGeometry>
        </mxCell>
        <mxCell id="hHmgyYZAZo99E_Bc1XQI-16" value="" style="endArrow=none;html=1;rounded=1;curved=0;arcSize=5;" parent="1" edge="1">
          <mxGeometry width="50" height="50" relative="1" as="geometry">
            <mxPoint x="303.61" y="154.69633507853402" as="sourcePoint" />
            <mxPoint x="238.69" y="154.69633507853402" as="targetPoint" />
            <Array as="points">
              <mxPoint x="319.84000000000003" y="170.92670157068065" />
              <mxPoint x="319.84000000000003" y="187.15706806282725" />
              <mxPoint x="222.46" y="187.15706806282725" />
              <mxPoint x="222.46" y="170.92670157068065" />
            </Array>
          </mxGeometry>
        </mxCell>
        <mxCell id="hHmgyYZAZo99E_Bc1XQI-27" value="" style="endArrow=blockThin;html=1;rounded=0;endFill=1;" parent="1" edge="1">
          <mxGeometry width="50" height="50" relative="1" as="geometry">
            <mxPoint x="214.345" y="138.46596858638745" as="sourcePoint" />
            <mxPoint x="214.345" y="170.92670157068065" as="targetPoint" />
          </mxGeometry>
        </mxCell>
        <mxCell id="hHmgyYZAZo99E_Bc1XQI-35" value="" style="endArrow=none;html=1;rounded=1;curved=0;arcSize=5;" parent="1" edge="1">
          <mxGeometry width="50" height="50" relative="1" as="geometry">
            <mxPoint x="336.07000000000005" y="268.3089005235602" as="sourcePoint" />
            <mxPoint x="352.3" y="154.69633507853402" as="targetPoint" />
            <Array as="points">
              <mxPoint x="336.07000000000005" y="252.07853403141362" />
              <mxPoint x="352.3" y="252.07853403141362" />
              <mxPoint x="352.3" y="187.15706806282725" />
              <mxPoint x="336.07000000000005" y="187.15706806282725" />
              <mxPoint x="336.07000000000005" y="170.92670157068065" />
            </Array>
          </mxGeometry>
        </mxCell>
        <mxCell id="hHmgyYZAZo99E_Bc1XQI-39" value="" style="endArrow=blockThin;html=1;rounded=0;endFill=1;" parent="1" edge="1">
          <mxGeometry width="50" height="50" relative="1" as="geometry">
            <mxPoint x="327.95500000000004" y="138.46596858638745" as="sourcePoint" />
            <mxPoint x="327.95500000000004" y="170.92670157068065" as="targetPoint" />
          </mxGeometry>
        </mxCell>
        <mxCell id="hHmgyYZAZo99E_Bc1XQI-41" value="" style="endArrow=none;html=1;rounded=1;curved=0;arcSize=5;" parent="1" edge="1">
          <mxGeometry width="50" height="50" relative="1" as="geometry">
            <mxPoint x="433.45000000000005" y="154.69633507853402" as="sourcePoint" />
            <mxPoint x="303.61" y="268.3089005235602" as="targetPoint" />
            <Array as="points">
              <mxPoint x="433.45000000000005" y="138.46596858638745" />
              <mxPoint x="400.99" y="138.46596858638745" />
              <mxPoint x="400.99" y="317" />
              <mxPoint x="319.84000000000003" y="317" />
              <mxPoint x="319.84000000000003" y="284.5392670157068" />
            </Array>
          </mxGeometry>
        </mxCell>
        <mxCell id="hHmgyYZAZo99E_Bc1XQI-64" value="" style="endArrow=none;html=1;rounded=1;curved=0;arcSize=5;" parent="1" edge="1">
          <mxGeometry width="50" height="50" relative="1" as="geometry">
            <mxPoint x="449.68" y="154.69633507853402" as="sourcePoint" />
            <mxPoint x="352.3" y="268.3089005235602" as="targetPoint" />
            <Array as="points">
              <mxPoint x="449.68" y="122.23560209424085" />
              <mxPoint x="384.76" y="122.23560209424085" />
              <mxPoint x="384.76" y="300.7696335078534" />
              <mxPoint x="336.07000000000005" y="300.7696335078534" />
              <mxPoint x="336.07000000000005" y="284.5392670157068" />
            </Array>
          </mxGeometry>
        </mxCell>
        <mxCell id="hHmgyYZAZo99E_Bc1XQI-65" value="" style="endArrow=blockThin;html=1;rounded=0;endFill=1;" parent="1" edge="1">
          <mxGeometry width="50" height="50" relative="1" as="geometry">
            <mxPoint x="327.95500000000004" y="252.07853403141362" as="sourcePoint" />
            <mxPoint x="327.95500000000004" y="284.5392670157068" as="targetPoint" />
          </mxGeometry>
        </mxCell>
        <mxCell id="hHmgyYZAZo99E_Bc1XQI-66" value="" style="endArrow=blockThin;html=1;rounded=0;endFill=1;" parent="1" edge="1">
          <mxGeometry width="50" height="50" relative="1" as="geometry">
            <mxPoint x="441.56500000000005" y="146.58115183246073" as="sourcePoint" />
            <mxPoint x="441.56500000000005" y="179.04188481675394" as="targetPoint" />
          </mxGeometry>
        </mxCell>
        <mxCell id="hHmgyYZAZo99E_Bc1XQI-67" value="" style="endArrow=blockThin;html=1;rounded=0;endFill=1;" parent="1" edge="1">
          <mxGeometry width="50" height="50" relative="1" as="geometry">
            <mxPoint x="506.485" y="269.9319371727749" as="sourcePoint" />
            <mxPoint x="506.485" y="302.39267015706804" as="targetPoint" />
          </mxGeometry>
        </mxCell>
        <mxCell id="hHmgyYZAZo99E_Bc1XQI-68" value="x&lt;sup style=&quot;&quot;&gt;&lt;font style=&quot;font-size: 12px;&quot;&gt;2&lt;/font&gt;&lt;/sup&gt;" style="text;strokeColor=none;align=center;fillColor=none;html=1;verticalAlign=middle;whiteSpace=wrap;rounded=0;fontSize=15;" parent="1" vertex="1">
          <mxGeometry x="263.035" y="73.54450261780106" width="64.92" height="32.460732984293195" as="geometry" />
        </mxCell>
        <mxCell id="hHmgyYZAZo99E_Bc1XQI-69" value="x + y" style="text;strokeColor=none;align=center;fillColor=none;html=1;verticalAlign=middle;whiteSpace=wrap;rounded=0;fontSize=15;" parent="1" vertex="1">
          <mxGeometry x="238.69" y="203.38743455497382" width="64.92" height="32.460732984293195" as="geometry" />
        </mxCell>
        <mxCell id="hHmgyYZAZo99E_Bc1XQI-70" value="x + 1" style="text;strokeColor=none;align=center;fillColor=none;html=1;verticalAlign=middle;whiteSpace=wrap;rounded=0;fontSize=15;" parent="1" vertex="1">
          <mxGeometry x="444.81100000000004" y="211.50261780104714" width="64.92" height="32.460732984293195" as="geometry" />
        </mxCell>
        <mxCell id="1HjXiJQ7qyAeAaL4lSqM-4" value="" style="endArrow=none;html=1;rounded=1;endFill=0;curved=0;arcSize=5;" parent="1" edge="1">
          <mxGeometry width="50" height="50" relative="1" as="geometry">
            <mxPoint x="238.69" y="24.85340314136126" as="sourcePoint" />
            <mxPoint x="319.84000000000003" y="138.46596858638745" as="targetPoint" />
            <Array as="points">
              <mxPoint x="254.92000000000002" y="41.083769633507856" />
              <mxPoint x="254.92000000000002" y="57.31413612565446" />
              <mxPoint x="238.69" y="57.31413612565446" />
              <mxPoint x="238.69" y="122.23560209424085" />
              <mxPoint x="319.84000000000003" y="122.23560209424085" />
            </Array>
          </mxGeometry>
        </mxCell>
        <mxCell id="1HjXiJQ7qyAeAaL4lSqM-5" value="" style="endArrow=none;html=1;rounded=1;arcSize=5;curved=0;" parent="1" edge="1">
          <mxGeometry width="50" height="50" relative="1" as="geometry">
            <mxPoint x="514.6" y="276.4240837696335" as="sourcePoint" />
            <mxPoint x="465.91" y="162.81151832460733" as="targetPoint" />
            <Array as="points">
              <mxPoint x="514.6" y="260.19371727748694" />
              <mxPoint x="530.8299999999999" y="260.19371727748694" />
              <mxPoint x="530.8299999999999" y="195.27225130890054" />
              <mxPoint x="449.68" y="195.27225130890054" />
              <mxPoint x="449.68" y="179.04188481675394" />
            </Array>
          </mxGeometry>
        </mxCell>
        <mxCell id="1HjXiJQ7qyAeAaL4lSqM-6" value="" style="endArrow=none;html=1;rounded=1;endFill=0;arcSize=5;curved=0;" parent="1" edge="1">
          <mxGeometry width="50" height="50" relative="1" as="geometry">
            <mxPoint x="417.22" y="162.81151832460733" as="sourcePoint" />
            <mxPoint x="498.37" y="276.4240837696335" as="targetPoint" />
            <Array as="points">
              <mxPoint x="433.45000000000005" y="179.04188481675394" />
              <mxPoint x="433.45000000000005" y="195.27225130890054" />
              <mxPoint x="417.22" y="195.27225130890054" />
              <mxPoint x="417.22" y="260.19371727748694" />
              <mxPoint x="498.37" y="260.19371727748694" />
            </Array>
          </mxGeometry>
        </mxCell>
        <mxCell id="0zWPNHQlQ6AzTByDRqDW-1" value="" style="endArrow=none;html=1;rounded=1;endFill=0;curved=0;arcSize=5;" parent="1" edge="1">
          <mxGeometry width="50" height="50" relative="1" as="geometry">
            <mxPoint x="190" y="154.69633507853402" as="sourcePoint" />
            <mxPoint x="319.84000000000003" y="268.3089005235602" as="targetPoint" />
            <Array as="points">
              <mxPoint x="206.23" y="170.92670157068065" />
              <mxPoint x="206.23" y="187.15706806282725" />
              <mxPoint x="190" y="187.15706806282725" />
              <mxPoint x="190" y="252.07853403141362" />
              <mxPoint x="319.84000000000003" y="252.07853403141362" />
            </Array>
          </mxGeometry>
        </mxCell>
      </root>
    </mxGraphModel>
  </diagram>
</mxfile>
